<?xml version="1.0" encoding="UTF-8" standalone="no"?>
<svg
   xmlns:dc="http://purl.org/dc/elements/1.1/"
   xmlns:cc="http://creativecommons.org/ns#"
   xmlns:rdf="http://www.w3.org/1999/02/22-rdf-syntax-ns#"
   xmlns:svg="http://www.w3.org/2000/svg"
   xmlns="http://www.w3.org/2000/svg"
   xmlns:sodipodi="http://sodipodi.sourceforge.net/DTD/sodipodi-0.dtd"
   xmlns:inkscape="http://www.inkscape.org/namespaces/inkscape"
   viewBox="0 0 391.3 363"
   version="1.1"
   id="svg66"
   sodipodi:docname="logo.svg"
   inkscape:version="1.0.1 (3bc2e813f5, 2020-09-07)">
  <metadata
     id="metadata70">
    <rdf:RDF>
      <cc:Work
         rdf:about="">
        <dc:format>image/svg+xml</dc:format>
        <dc:type
           rdf:resource="http://purl.org/dc/dcmitype/StillImage" />
      </cc:Work>
    </rdf:RDF>
  </metadata>
  <sodipodi:namedview
     pagecolor="#ffffff"
     bordercolor="#666666"
     borderopacity="1"
     objecttolerance="10"
     gridtolerance="10"
     guidetolerance="10"
     inkscape:pageopacity="0"
     inkscape:pageshadow="2"
     inkscape:window-width="1920"
     inkscape:window-height="980"
     id="namedview68"
     showgrid="false"
     inkscape:zoom="1.5056924"
     inkscape:cx="137.41173"
     inkscape:cy="194.26424"
     inkscape:window-x="0"
     inkscape:window-y="0"
     inkscape:window-maximized="1"
     inkscape:current-layer="Capa_1-2" />
  <defs
     id="defs4">
    <style
       id="style2">.cls-1{fill:#606060;}.cls-2{fill:none;stroke:#fff;stroke-width:11px;}.cls-2,.cls-4{stroke-miterlimit:10;}.cls-3,.cls-4{fill:#dd2026;}.cls-4{stroke:#ffce00;stroke-width:2px;}.cls-5{fill:#fff;}.cls-6{fill:#ffb31a;}.cls-7{fill:#c1c0bd;}.cls-8{fill:#00ca45;}.cls-9{fill:#008ae7;}</style>
  </defs>
  <title
     id="title6">Recurso 1</title>
  <g
     id="Capa_2"
     data-name="Capa 2">
    <g
       id="Capa_1-2"
       data-name="Capa 1">
      <circle
         class="cls-1"
         cx="181.5"
         cy="181.5"
         r="181.5"
         id="circle8" />
      <path
         class="cls-2"
         d="M47,103.9v16.66c.22,1.05.22,7.38.22,9.28a47.1,47.1,0,0,0,.86,9.49C50,158.11,52,171.4,57.57,190.17a193.08,193.08,0,0,0,26.75,55.47A181.81,181.81,0,0,0,119.26,284c1.94,1.9,3.88,3.16,5.82,4.85s10.14,7.59,12.3,9.28l6.47,4.43a251.37,251.37,0,0,0,27.61,15.82A61.15,61.15,0,0,0,179,322c1.08,0,19-10.55,20.28-11.39,2.16-1.48,4.75-2.74,6.47-4.43,3.88-2.74,8.41-5.48,12.3-8.44,12.51-8.65,22.22-17.93,33.65-28.9l5-5.48a192.7,192.7,0,0,0,28.9-42.4,208.34,208.34,0,0,0,19.2-60.11,115.63,115.63,0,0,0,2.16-17.08L308,125.84h0V110.65l-.22-5.91c-2.59,0-6,.84-8.84.84-3.24,0-6,.21-9.49,0C267.66,103.48,272,85.13,272.84,71c-1.08,0-8.41,3.59-10.14,3.8-26.32,9.91-55.65,14.34-84.77,15-31.71,0-61.69-4.64-89.52-16.66a19.47,19.47,0,0,0-5-2.11c.22,5.69,1.08,10.55.86,16.24-.22,4.85-1.94,9.91-4.75,13.08S72,105.17,66,105.8c-3.24,0-6.47,0-9.71-.21C53.47,104.75,47.86,103.69,47,103.9Z"
         id="path10" />
      <path
         class="cls-3"
         d="M50.78,107c-.23,49.55,7.91,91.42,34,133.76,2.79,4.19,6,8.37,9.07,12.56a188.92,188.92,0,0,0,31.87,33.5c4,3,7.91,6.28,12.1,9.54,6.28,5.12,12.79,9.07,19.77,13.26,7.44,4.89,13.49,7.91,21.4,12.1,1.63.93,1.16.23,3.49-.93,23-12.56,45.83-28.85,63.27-46.76a245.85,245.85,0,0,0,27-33c18.84-29.78,27.92-59.32,31.87-94.45,1.16-9.54,1.16-19.77,1.16-29.78,0-3,0-7-.23-10.24-13.26,0-21.87-.93-30-6.51-8.14-6.28-9.31-15.35-9.31-24.66l-9.31,3c-3,1.16-6.51,2.09-9.54,3C210.83,91.87,168.49,94,130.1,86.76A159.3,159.3,0,0,1,95,76.52c-1.16-.23-3.49-1.63-4.89-2.09-.23,5.35,0,9.54-2.09,14.66-3,8.37-9.54,13.49-19.77,15.59C60.32,108.16,57.76,106.76,50.78,107Z"
         id="path12" />
      <path
         class="cls-4"
         d="M311.09,104.44c.93,30.94-.93,56.3-9.31,85.84-5.35,18.84-15.59,41.64-27.22,58.39-2.09,2.33-3,4.89-5.12,7A173.13,173.13,0,0,1,258,269.14c-8.37,9.54-22.1,22.56-32.8,30.24l-14.42,10.47c-3.49,2.33-12.1,7.91-15.59,10.24-2.79,1.63-5.35,3-8.14,4.89-1.63.93-2.79,1.63-4.19,2.33-2.79,1.16-2.33,2.09-4.19.93-2.79-1.63-6-2.79-8.37-4.19a298.79,298.79,0,0,1-31.4-19.54,246.4,246.4,0,0,1-38.15-34.2L88.23,254.71c-11.4-15.35-18.84-30.24-26.05-47.92-10.93-26.52-16.52-60.95-16.75-91.19v-6c0-7.44-.93-6.28,2.33-6.28,3,.23,6.51.23,9.54.23,11.4-.23,20.47-4.19,24.89-13.49A26.86,26.86,0,0,0,85,80.71c.93-5.12,0-9.07.23-11.4l9.31,4c40.24,15.35,93.05,16.52,134.92,8.14A294.16,294.16,0,0,0,262.24,73l10.24-4c0,2.79-.23,5.35,0,8.37,1.16,12.1,6.51,20.94,20.7,24.66,7.91,2.56,10.93,1.86,17.91,2.33ZM38.45,96.53V114.9c.23,1.16.23,8.14.23,10.24a53.09,53.09,0,0,0,.93,10.47c2.09,20.7,4.19,35.36,10.24,56.06a215,215,0,0,0,28.85,61.18,199,199,0,0,0,37.69,42.34c2.09,2.09,4.19,3.49,6.28,5.35s10.93,8.37,13.26,10.24l7,4.89a269.62,269.62,0,0,0,29.78,17.45,65.31,65.31,0,0,0,8.14,4c1.16,0,20.47-11.63,21.87-12.56,2.33-1.63,5.12-3,7-4.89,4.19-3,9.07-6,13.26-9.31,13.49-9.54,24-19.77,36.29-31.87l5.35-6a212.81,212.81,0,0,0,31.17-46.76,233.51,233.51,0,0,0,20.7-66.3,130.28,130.28,0,0,0,2.33-18.84l1.16-19.77h0V104l-.23-6.51c-2.79,0-6.51.93-9.54.93-3.49,0-6.51.23-10.24,0-23.5-2.33-18.84-22.56-17.91-38.15-1.16,0-9.07,4-10.93,4.19-28.38,10.93-60,15.82-91.42,16.52-34.2,0-66.53-5.12-96.54-18.38a20.75,20.75,0,0,0-5.35-2.33c.23,6.28,1.16,11.63.93,17.91-.23,5.35-2.09,10.93-5.12,14.42s-8.14,5.35-14.66,6c-3.49,0-7,0-10.47-.23C45.43,97.46,39.38,96.29,38.45,96.53Z"
         id="path14" />
      <path
         class="cls-5"
         d="M285.5,193.53H75c.23,2.09,7.91,15.59,9.07,17.45a134,134,0,0,0,10.24,16.75c4.19,6.28,7,10.24,11.4,15.82,2.09,2.79,4.19,5.12,6,7.44l6.28,7.44c2.33,2.33,4.19,4.89,6.51,7a205.09,205.09,0,0,0,19.77,17.91c.93.23,1.16,1.16,2.09,1.63a202.39,202.39,0,0,0,24.89,16.75c1.16.93,8.37,4.89,9.31,4.89,1.16,0,16.52-9.07,17.91-10.24,18.61-12.1,30.24-22.1,44.66-37.69a343.27,343.27,0,0,0,23.73-30.94l5.12-8.14a178.14,178.14,0,0,0,11.63-21.87,8.62,8.62,0,0,0,1.86-4.19Z"
         id="path16" />
      <path
         class="cls-3"
         d="M140.8,193.53a10.07,10.07,0,0,0,1.16,2.79c.23.93,2.09.93,3,1.16,2.33.23,4,1.16,6.28,1.63l9.54,2.79c.93.23,2.33.23,2.79,1.16l-21.4-4.89c.23.93,1.16,1.16,2.09,2.09a6.41,6.41,0,0,0,2.09,1.63l17.45,4.89c-.23.23-1.16,0-2.09,0s-1.4-.23-2.33-.23a58.4,58.4,0,0,0-12.79-1.63,12.45,12.45,0,0,0,3.49,4.19c1.4.23,12.56,1.16,15.35,1.63A15.4,15.4,0,0,1,169,211c.23.23,1.4,1.63,1.4,2.33l-18.61-2.79,2.33,4c.23.23,15.35,2.09,18.38,2.33,2.33.23,3,.93,3.49,2.79l-18.38-2.33c0,1.16.23,2.79.93,3.49.23.23,0,.23.23.23l20.94,1.16c-.23.93-2.79,2.09-3.49,2.79-1.16.93-4.19.23-6,.23v-2.09c-1.16.23-1.63.93-2.79.93-2.09,0-5.12,0-7.44-.23-2.33,0-3.49-4-5.35-4.89-1.16-.23-4.89-1.63-5.35-1.63.93,1.63,3,2.79,4.19,4-3.49-1.16-6.51-4-9.54-5.12a5.19,5.19,0,0,0-2.33,2.09c1.4,1.16,6,2.79,7.91,3.49,4,1.63,6.51,2.09,6.28,5.12l-12.1-4.89c0,2.09.23,2.09,2.09,2.79a9.6,9.6,0,0,0,3.49,1.63,55.08,55.08,0,0,1,6.51,3.49c0,3.49-.93,2.09-2.33,4l1.16,2.09c.93-.23,2.79-2.79,3.49-3.49l3.49-3.49-.93-4c1.63,0,5.35.93,7,1.16,4.89,1.16,2.33.23,6,0a30.56,30.56,0,0,1,1.16,3.49c-3.49,2.33-7.91,4-12.56,6L137.08,247c-4,1.63-2.79,2.09-6.28,0-1.63-.93-4.19-2.79-6-3,.23-1.16,1.63-2.09,2.09-3-1.63-.23-3-1.63-4.89-2.09.23.93.23.23.93,1.16-1.16.93-5.12,4-5.35,5.12a59.67,59.67,0,0,1,9.31,4.89c1.63.93,3,2.09,4.89,2.33a5.73,5.73,0,0,0,2.79-.23l12.1-6a23.83,23.83,0,0,1,4.89-2.33,31.53,31.53,0,0,1,4.89-2.33c-1.63,1.16-5.35,3-7,4-4.89,2.79-9.54,5.12-14.42,8.14a57.7,57.7,0,0,0-7.44,4l3,7.91c1.4-.23,23.5-15.82,27.22-18.38-.93.93-2.33,1.63-3,2.33a30.31,30.31,0,0,1-3.49,2.33l-6.51,4.89c-4.89,3-9.07,6.51-13.26,9.54.23.93,6,6.51,6.51,7a49.34,49.34,0,0,0,3.49-3.49,36.82,36.82,0,0,0,3-3c6.28-6.28,12.56-12.56,18.61-18.38,1.16-.93,1.16-1.63,1.63-.93-1.16.93-5.35,6-6.28,6.51-2.09,2.33-4,4.19-6.28,6.51l-12.1,13.49a24.15,24.15,0,0,0,4,2.79c1.16.7,3,2.33,4.19,2.79a35,35,0,0,0,2.33-4,16.13,16.13,0,0,0,2.33-4c2.09-2.79,3.49-5.12,5.12-7.44,1.16-2.09,8.37-13.26,10.24-14.66l-18.38,31.4,11.63,4c.93-1.63,8.37-27,10.24-30.94.93-2.09,2.79-9.07,3.49-10.24l-4.89,40.71L185.7,284a26.71,26.71,0,0,0,.23-4.19c.23-1.63,1.63-1.63,1.63-3l-6-.23-.93,4h0c-1.63,0-4.89-.23-6.28-.93h-.23c0-4,.93-8.14,1.16-11.63.93-7.91,1.63-15.59,2.33-23.5a12.29,12.29,0,0,1,.23-3c.23-1.63,3-4.89,4.19-6,.23.23,1.63,6.28,2.09,7.44.23,2.09.93,6,.23,8.14L179,252.15l1.16,2.09h4.19c0,3-1.63,1.16.23,5.12.23,1.16,2.09,4.19,2.33,4.89h2.33c0-1.16-.93-3-1.16-4.19,1.16,1.16.23,1.16,2.09,2.09.93.23,1.63,1.16,2.79,1.63-.23-3-3-5.12-3-6.28,1.16.23,4,4,5.35,4.19-.23-3-3-4.89-5.12-6.51-1.4-1.16-2.33-1.63-2.33-3.49v-5.35c0-2.79-2.33-9.54-2.33-12.1,0-1.16,3.49-4.19,4-4.89.93.93,7.91,19.54,9.31,23.5,0,.23,0,.23.23.93l.23.93c.23,0,5.35-2.09,5.35-2.09-.93-2.33-7.44-13.49-9.07-16.75-.93-1.63-3-4-1.16-5.35A44.74,44.74,0,0,0,198.5,237c1.16,2.09,11.63,18.38,12.79,19.77.23.23,0,.23.23.23,1.16-.23,2.79-1.63,3.49-2.09-.23-1.63-8.14-10.93-9.31-12.56l-7-9.07c-.93-.93-1.63-2.33-2.33-3l.93-.93c1.63,1.63,13.49,17.45,15.82,20.47,1.63,2.09,4.19,4.89,5.12,7,1.16,0,2.79-.93,4-.93-.23-.93-14.66-17.91-17.21-20.7-.93-.93-.93-.93,0-1.63,1.16,0,.23-.23,1.16.23l2.09,2.09c2.33,2.79,4.89,5.35,7,7.91,1.63,1.63,8.14,9.07,9.31,10.47h2.79c-.93-2.09-14.42-16.75-15.35-18.38h1.63c2.09,1.63,3.49,4,5.12,5.35a53.3,53.3,0,0,0,4.89,5.35l7.44,8.14c1.16,1.16,1.16,2.09,3,2.09,0-1.16-3.49-4.19-4.89-5.35l-13.49-15.82a56.82,56.82,0,0,0-5.35-5.12,53.3,53.3,0,0,1-5.35-4.89c-2.09-1.63-.93-.93-4-1.16-1.63,0-2.33-1.16-3-2.09-1.63-1.63-4-2.79-4-6l.93-.93h2.33c2.33-2.79,0-2.79,2.33-5.12l10.93-12.56s-.23-.93-1.63,0L196.4,209.35c-1.16,1.16-1.16.93-3,.93a31.15,31.15,0,0,1-1.4,2.79c-.93,1.63-1.16,1.16-2.79,2.09-3-1.63-23.73-17.91-26.05-18.61a150.76,150.76,0,0,0-14.66-4C145.92,194.7,142.9,193.77,140.8,193.53Z"
         id="path18" />
      <path
         class="cls-5"
         d="M132.43,95.6h93.75v20.7h30.24V137c1.4.23,18.38,0,21.4,0,9.07,0,12.56-1.16,14.19,6.51,1.16,5.12,0,13.49-5.35,14.19-3.49.23-7.44,0-10.93,0H71.25c-5.12-.23-6.28-9.07-5.12-14.19,2.09-8.14,6.51-6.51,14.19-6.51h21.4V116.3c2.09-.23,26.05,0,30.24,0l.47-20.7Z"
         id="path20" />
      <path
         class="cls-3"
         d="M244.32,139.33v9.07l-.93.23a22.57,22.57,0,0,1-4-.23,60.66,60.66,0,0,1,0-6.51c0-1.63-.23-2.33,1.16-2.33a4.21,4.21,0,0,1,3.72-.23Zm-4.89,9.31a34.8,34.8,0,0,0,2.09,4.19h8.37c3.49,0,2.79-2.09,2.79-4.89v-7.44c0-2.09.23-5.35-1.16-6.28a28.33,28.33,0,0,0-6.28,0v4c-.23-.23,0,.23-.23-.23a7.82,7.82,0,0,0-2.09-3.49c-11.63-.23-10.47,0-10.47,5.12v7c0,8.14-1.16,7,7,7v-5.35h0Z"
         id="path22" />
      <path
         class="cls-3"
         d="M214.32,134.44h-11.4l-1.4,4v-4c-8.37-.93-7,1.16-7,7.91v6.51c0,2.33-.23,4.19,2.79,4.19h7.91c9.54,0,9.54,1.16,9.54-4.89a60.44,60.44,0,0,0,0-6.51h-8.14c-.23.93-1.63,3-2.09,4.19a9.59,9.59,0,0,1,2.79.23v1.16c0,.93,0,.93-.23,1.16a17.1,17.1,0,0,1-4.89,0c-.23-1.16,0-6-.23-7.44V139.8c0-.93,0-.23.23-.93,1.4-.23,8.14,0,10.47,0Z"
         id="path24" />
      <path
         class="cls-3"
         d="M139.64,138.63l-2.09-4.19c-11.4,0-10.47-.93-10.47,5.12,0,2.09-.23,12.79.93,13.49a28.33,28.33,0,0,0,6.28,0v-4c.23.93,1.16,2.79,1.4,3.49.23,0,.23,0,.23.23h10.47c0-.23,0-.23.23,0v-8.61c0-2.33-.23-6.28,0-8.14l-.23-.23c-.23,0-.23,0,0-.23h-6.28v2.79a8.26,8.26,0,0,1-.23,2.33v8.14c-.23,1.16-1.63.93-3,.93h-1.16c-1.63,0-.23,0-.93-.23s-.23-1.63-.23-2.33V141c.23-1.63,2.09-1.63,4.19-1.16,1.63,0,.23,0,.93.23C139.64,138.86,139.64,139.8,139.64,138.63Z"
         id="path26" />
      <path
         class="cls-3"
         d="M190.59,134.44H174.07L172,138.63h1.63v14.19h15.82l1.4-4.19H180.58v-2.79h7.91c.23-1.16,1.4-3,1.4-4.19h-7.44c-.93,1.16-1.16,2.79-2.09,3.49v-6.28h8.14Z"
         id="path28" />
      <path
         class="cls-3"
         d="M113.12,139.33c2.09-.93,5.35.23,7.44-.23.93-.23.93-1.16,1.4-2.33.23-.93.93-1.63.93-2.79h-8.37l-1.63,4.19v-4.42a60.66,60.66,0,0,0-6.51,0c-1.16,2.33-.93,12.79-.23,16.52,0,3,3.49,2.33,7,2.33h9.31c.23-.93,1.63-3.49,1.63-4.19-2.33-.23-10.24.23-10.47-.23v-4.65C112.89,142.35,112.66,140,113.12,139.33Z"
         id="path30" />
      <path
         class="cls-3"
         d="M150.58,138.86a5.16,5.16,0,0,1,2.09.23v14h14.66l1.63-4.19h-9.31V134.44h-7Z"
         id="path32" />
      <path
         class="cls-3"
         d="M221.53,134.44c-.93.23-.93.23-.93,1.16-.23.23-.23.93-.23,1.16a21.62,21.62,0,0,1-1.16,2.33h2.09v14.19h7.44V134.68C228.51,134.44,221.53,134.44,221.53,134.44Z"
         id="path34" />
      <path
         class="cls-3"
         d="M172,107.93c.23.23.23,0,.23,1.63v6c-.93.23-.93-.23-.93,1.63h9.54v-3h-2.33c0,1.16,0,1.63-.23,1.63H177.1c-1.63,0-.93,0-1.16-.23v-2.79h3v-2.09h-3v-2.79h2.79c0,2.09-.23,1.63,2.79,1.63v-3h-10C171,108.16,171,107.93,172,107.93Z"
         id="path36" />
      <path
         class="cls-3"
         d="M196.87,110.95v-3c2.09,0,2.79,0,2.79,1.63,0,1.4-.7,1.63-2.79,1.4Zm-3-3a15.4,15.4,0,0,1,.23,3.49v4h-.93v1.16h5.12v-.93c-1.16,0-1.16,0-1.16-2.09,0-1.16.23-1.16.23-1.16,1.16,0,4-.23,4.89-.93,2.09-1.16,1.4-5.12-1.16-5.12h-5.82c-2.09,0-1.4-.23-1.4.93Z"
         id="path38" />
      <path
         class="cls-3"
         d="M155.46,108.16v6.28c-.23,1.63-1.16-.93-.93,2.09h5.12c0-2.79-.23-.93-.93-2.09v-6.28c.23-1.16,1.16.93.93-2.09h-5.12C154.53,108.16,155.23,107.46,155.46,108.16Z"
         id="path40" />
      <path
         class="cls-5"
         d="M178.26,309.38c.93,1.16,3,.93,4.89,1.63,1.4.93,2.09,2.79.23,4-2.09,2.09-8.37,1.63-8.37-2.09h2.79c.93.93,1.63,2.33,3.49.93,0-2.79-7.91-1.16-5.35-5.35,1.16-2.09,7.91-2.33,8.14,1.16-4,0-2.33,0-3-.23-1.4-1.16-2.56-1.16-2.79,0Z"
         id="path42" />
      <path
         class="cls-5"
         d="M195,305c-2.09-.23-2.09-1.16-3.49.23-.93,1.16.93,5.35,3.49,4,.93-.23.23-.23.93-1.63,0-.23,0-.23.23-.23H199c0,5.35-7.44,6.28-9.54,2.09-1.63-2.79-.93-4.89,1.63-6,2.79-1.63,4.19-1.16,6.51.23-.93,1.16-.93.7-2.56,1.4Z"
         id="path44" />
      <path
         class="cls-5"
         d="M169.65,304.26l2.79.93a18.35,18.35,0,0,1-2.09,5.35c-.93,2.09-2.79,2.79-5.35,2.09-6.51-1.63-3-5.35-2.09-9.54l3,.93c0,2.33-3.49,6.51-.23,7,2.79,0,2.33-4.89,4-6.75Z"
         id="path46" />
      <path
         class="cls-5"
         d="M199.66,301.7a5.16,5.16,0,0,0,6.28,4c2.33-.23,5.35-2.33,4.89-5.12-1.86-7.21-12.56-4-11.17,1.16Z"
         id="path48" />
      <ellipse
         class="cls-3"
         cx="205.01"
         cy="301.01"
         rx="3.02"
         ry="2.56"
         id="ellipse50" />
      <path
         class="cls-5"
         d="M156.16,302.87c-1.16.23-2.33.93-3,0-2.09-2.09,4.19-7.44,4.89-2.09l2.79.93c.23-2.79-1.16-4.19-3.49-5.12-3-1.16-5.12.93-6.28,2.33-3,4.19,3.49,9.07,7.44,6l-2.33-2.09Z"
         id="path52" />
      <path
         class="cls-5"
         d="M236.18,96.53h0s-.23-.23-.93,0-.23,9.54-.23,11.4a3,3,0,0,0,.23,1.63h.23c1.16.23-1.16,0,.23,0h24.89v16.52l19.54.23h.47c.23,0,.23.23.23-.23v-.23H262.7c0-2.09.23-15.59,0-16.52H237.35c-.23-2.33,0-9.31,0-11.4l-1.16-1.4ZM120.1,110.95c-3,0-24.66-.23-25.82,0-.23.23-.23,7.44-.23,8.14v8.37H79.62c-1.16,0-3.49-.23-4.19.23,0,.93.23.93,1.16.93H95.21c.93-.93.23-6.51.23-8.14v-8.37h25.82a126,126,0,0,0,0-13.26c-1.63-.23-1.16.93-1.16,2.09v10Zm26.75,67.23c0-2.09-.23-3.49-.23-5.35a3,3,0,0,0-1.63-3c-1.63-.93-1.16-2.33.23-2.79a8.73,8.73,0,0,1,2.33-.23c3,.23,6.28,0,9.31,0a9.27,9.27,0,0,1,5.12,1.16c3.49,2.09,4.19,6.28,1.16,8.37-.93.93-1.63,1.16,0,2.09,2.33.93,2.79,2.79,3,4.89.23,1.16.23,2.33,2.09,3,1.63.93.93,2.09-.23,2.79-3,2.09-8.14.23-9.31-2.79a11.85,11.85,0,0,1-1.4-4.89c-.23-1.16-1.16-2.09-2.33-1.63s-.93,1.63-.93,2.33c0,1.63,0,3,1.63,4.19,1.16.93.23,2.09-.93,2.33-3.49.93-7,1.63-10.47-1.16-.23-.23-.23-.23-.93,0-3.49,2.79-7.91,1.63-11.63,1.16-1.16,0-2.09-1.63-.23-2.33.23-.23,1.16-.93.93-1.63-.23-.93-.93-.93-1.63-.93h-5.12c-.93,0-1.16,0-1.4.93s0,1.16.93,1.63,1.16.93,1.16,1.63c0,.93-.93,1.16-1.63,1.16a30.48,30.48,0,0,1-6.51,0c-.93,0-1.16-.23-1.16-1.16a1.56,1.56,0,0,1,.93-1.63c1.4-.23,2.09-1.63,2.79-2.79,1.63-4.89,4.89-9.07,4.89-14.19,0-2.33,3-3,5.35-2.33a16.53,16.53,0,0,1,3.49,3.49c2.33,4,4.19,7.91,6.28,11.63a8.37,8.37,0,0,0,1.16,2.09c.23,1.63,2.33,2.79,3,2.33,1.16-.23,2.33-2.09,2.33-3.49A18.25,18.25,0,0,1,146.85,178.18Zm6.75-4.65c.23.93-.93,2.79,1.16,3,2.09,0,2.33-1.16,2.33-2.79s0-3-2.09-3C153.13,170.27,154.53,172.36,153.6,173.53Zm-24.89,6c.93-.23,2.33.93,2.09-.93-.23-1.16-.93-3.49-2.33-3.49s-1.63,2.09-2.09,3C126.15,180.51,128.24,179.34,128.71,179.57Zm49.55-12.33a69.78,69.78,0,0,1,7,0c2.09.23,4.89,1.63,5.35,4,.93,2.33.23,4.19-2.09,6-1.16.93-.93,1.16.23,1.63,1.4.93,2.79,2.09,3,3.49.23,1.63.23,3,2.33,4.19,1.16.93.23,2.09-.93,2.33-3.49,2.09-8.14.23-9.31-3a11.26,11.26,0,0,0-1.63-4.19,2.31,2.31,0,0,0-2.33-1.63c-1.16.23-.93,1.16-.93,2.09,0,1.63,0,3,1.63,4.19,1.16.93.93,2.09-.93,2.33a15.86,15.86,0,0,1-9.31,0c-1.63-.23-2.33-1.63-.23-2.79a3.4,3.4,0,0,0,1.16-3c0-3,0-6.51-.23-9.54,0-1.16,0-2.33-1.16-2.79a1.46,1.46,0,0,1-1.16-2.09c.23-.93,1.16-1.16,2.33-1.16Zm1.16,6.28c.93.93-1.16,2.79,1.16,2.79,2.09,0,2.33-1.16,2.33-2.79s0-3.49-2.33-3C178.49,170.27,180.12,172.36,179.42,173.53Zm60.25-6.28c1.63-.23,3,.23,4.89,2.09,2.33,2.33,5.12,4.19,7.44,6.28.23.23.93,1.16,1.63.93.93-.23.23-1.16.23-1.63,0-1.63,0-3-1.63-4-1.4-.93-1.16-2.33.93-2.79a28.35,28.35,0,0,1,6.28,0c2.09.23,2.33,2.09.93,2.79-1.63.93-1.63,2.33-1.63,3.49,0,3.49.23,7,.23,10.47V187c0,1.16,0,2.33-1.16,2.79-1.16.93-2.09-.23-3-1.16-3-2.79-6.28-5.35-9.31-8.14-.23-.23-1.16-1.16-2.09-.93s-.93,1.16-.93,2.09c0,2.09,0,4,2.09,5.35,1.16.93.23,2.09-.93,2.79-2.09.93-4,.23-5.35,0-2.33-.23-2.79-2.09-1.16-3.49A2.77,2.77,0,0,0,238,184a76,76,0,0,0-.23-10.24c0-1.16-.23-2.33-1.63-2.79-.93-.23-2.09-1.16-1.16-2.33.23-1.16,1.63-1.16,2.33-1.16A5.22,5.22,0,0,1,239.67,167.25Zm-17.91,22.33c-7,0-12.1-5.12-12.1-11.63,0-6.28,5.12-10.93,11.63-10.93s12.56,5.35,12.56,12.1C233.39,185.39,228.27,189.58,221.76,189.58Zm4-7.91a15.27,15.27,0,0,0-3-8.37c-.93-1.16-2.09-2.09-3.49-1.63-1.63.23-2.09,2.09-2.09,3a13.74,13.74,0,0,0,2.79,8.14c.93,1.16,2.09,2.09,3.49,1.63C225.25,184.46,225.25,182.83,225.71,181.67ZM94.28,178.18a11.45,11.45,0,0,1,15.82-10.47,6.44,6.44,0,0,0,2.09.23c3.49.23,6,4.19,4,7-1.16,2.09-3.49,2.09-4.89,0-.93-1.16-1.16-2.33-2.33-3-1.63-.93-2.79-1.63-4.89-.93-2.09.93-2.09,2.33-2.09,4,0,5.12,3,8.37,7.44,8.14a5.72,5.72,0,0,0,4-1.16c1.63-1.16,2.33-.23,2.33,1.16,0,1.63-.23,3-1.63,3.49-4.19,2.09-8.37,3.49-13.26,1.16A10.69,10.69,0,0,1,94.28,178.18ZM202,189.58a22.62,22.62,0,0,1-4.19-.23c-1.63-.23-2.09-1.63-.93-2.79.23-.23,1.16-.93,1.16-1.63,0-4,0-7.91-.23-11.63,0-1.16-.93-1.63-1.63-2.33-1.16-1.16-.93-2.09.93-2.79a15.87,15.87,0,0,1,9.31-.23c2.33.23,2.33,1.63.93,3a3.14,3.14,0,0,0-1.16,2.33c0,3.49,0,7,.23,10.47,0,1.16.23,2.09,1.63,2.33,1.63,1.16,1.16,2.33-.93,3A21.82,21.82,0,0,1,202,189.58Zm20.7-29.08c.93,0,1.63.23,2.33.23,1.63.23,2.09,1.63.93,2.79a7.47,7.47,0,0,1-5.12,2.33c-.93,0-1.63,0-2.09-.93-.23-.93.23-1.16.93-1.63.23-.23.93-.93.93-1.16C219.9,160.5,220.83,160.5,222.69,160.5Z"
         id="path54" />
      <circle
         class="cls-6"
         cx="133.52318"
         cy="311.63898"
         r="28.139999"
         id="circle56" />
      <circle
         class="cls-7"
         cx="202.34435"
         cy="314.62329"
         r="41.439999"
         id="circle58"
         style="fill:#e1e5ef;fill-opacity:1" />
      <circle
         class="cls-8"
         cx="285.47803"
         cy="268.43347"
         r="53.220001"
         id="circle60"
         style="fill:#3bb747;fill-opacity:1" />
      <circle
         class="cls-9"
         cx="322.89001"
         cy="155.59"
         id="circle62"
         r="68.410004"
         style="fill:#0747a6;fill-opacity:1" />
    </g>
  </g>
</svg>
